<?xml version="1.0" encoding="UTF-8"?>
<svg version="1.1" xmlns="http://www.w3.org/2000/svg" width="1021" height="536">
<path d="M0 0 C336.93 0 673.86 0 1021 0 C1021 176.88 1021 353.76 1021 536 C684.07 536 347.14 536 0 536 C0 359.12 0 182.24 0 0 Z " fill="#FEFEFE" transform="translate(0,0)"/>
<path d="M0 0 C6.49216542 5.02518573 6.49216542 5.02518573 9.375 7.7578125 C9.375 8.4178125 9.375 9.0778125 9.375 9.7578125 C10.035 9.7578125 10.695 9.7578125 11.375 9.7578125 C13.95783093 12.18655409 16.12979846 15.01966081 18.375 17.7578125 C19.15617188 18.70269531 19.93734375 19.64757812 20.7421875 20.62109375 C46.35856944 52.3279783 49.6863402 87.11597883 49.74244571 126.4673357 C49.74613732 128.73773196 49.75240059 131.0081076 49.7594471 133.27849579 C49.78379044 141.24898716 49.79696187 149.21941479 49.80053711 157.18994141 C49.8041679 164.54046502 49.83406985 171.89057012 49.87594169 179.24096608 C49.91096823 185.62047412 49.926091 191.99984542 49.92678314 198.37944865 C49.92756459 202.15946675 49.93576703 205.9390554 49.96478081 209.71897125 C50.25844836 250.48990706 40.54038787 286.45647459 12.26953125 317.03515625 C10.375 318.7578125 10.375 318.7578125 8.375 318.7578125 C8.045 319.7478125 7.715 320.7378125 7.375 321.7578125 C5.37176167 323.57083235 3.38323763 325.23588219 1.25 326.8828125 C0.62399902 327.36782227 -0.00200195 327.85283203 -0.64697266 328.35253906 C-29.42255796 350.21883354 -64.01739532 359.3940288 -99.9375 355.0703125 C-102.17486823 354.67689966 -104.40440277 354.23691396 -106.625 353.7578125 C-107.28177734 353.61778809 -107.93855469 353.47776367 -108.61523438 353.33349609 C-126.87363198 349.28215119 -143.81806222 341.14130226 -158.625 329.7578125 C-159.54410156 329.05914062 -160.46320313 328.36046875 -161.41015625 327.640625 C-163.49887845 326.03292229 -165.57049029 324.4088526 -167.625 322.7578125 C-166.00241665 316.58786179 -162.68494061 311.4915501 -159.4375 306.0703125 C-153.29941145 295.70351187 -147.39269563 285.23214055 -141.60083008 274.66918945 C-138.78644961 269.55648116 -135.99035869 264.52958974 -132.625 259.7578125 C-128.91644039 261.28685416 -126.77392259 263.52841143 -124.0625 266.4453125 C-116.10494773 274.53121239 -107.46377374 279.51919993 -96.625 282.7578125 C-95.55378906 283.09619141 -95.55378906 283.09619141 -94.4609375 283.44140625 C-81.17196034 287.04983638 -69.09370608 284.54526221 -56.625 279.7578125 C-55.69816406 279.40847656 -54.77132812 279.05914062 -53.81640625 278.69921875 C-40.74132933 272.98802515 -32.0840989 261.67601031 -25.875 249.2578125 C-24.17444238 244.49625116 -22.87364574 239.65498338 -21.625 234.7578125 C-20.965 234.7578125 -20.305 234.7578125 -19.625 234.7578125 C-19.6856041 216.52902707 -19.76315306 198.30039553 -19.86071491 180.07177067 C-19.90562515 171.60734873 -19.94505076 163.14296842 -19.97143555 154.6784668 C-19.99445434 147.29831733 -20.02789556 139.91830012 -20.07370156 132.53825563 C-20.0975816 128.63282004 -20.11634448 124.727515 -20.12261391 120.82200813 C-20.12868852 117.1406479 -20.14877325 113.45962149 -20.17927551 109.77838516 C-20.19216398 107.79417564 -20.19049232 105.80988797 -20.1882782 103.82563782 C-20.26102978 96.86988555 -20.97382681 91.19129479 -23.625 84.7578125 C-23.90601563 83.81292969 -24.18703125 82.86804688 -24.4765625 81.89453125 C-28.79478416 68.22016266 -38.87598425 57.19054631 -51.40136719 50.51074219 C-66.66716581 42.76063223 -82.30376872 39.96006852 -99.125 44.3828125 C-110.14488556 48.06037896 -118.42137032 53.58317091 -126.625 61.7578125 C-127.18960938 62.29921875 -127.75421875 62.840625 -128.3359375 63.3984375 C-138.74893945 74.30729669 -143.11508738 90.11912594 -142.98120117 104.82226562 C-142.7739311 111.11121647 -141.59260563 116.80388897 -139.625 122.7578125 C-139.35816406 123.60730469 -139.09132813 124.45679688 -138.81640625 125.33203125 C-133.77903482 139.59338947 -122.18767251 152.22305019 -108.625 158.7578125 C-94.99478557 164.55747458 -81.7431013 164.52979345 -67.125 164.5703125 C-59.37 164.6321875 -51.615 164.6940625 -43.625 164.7578125 C-43.625 187.8578125 -43.625 210.9578125 -43.625 234.7578125 C-98.61390573 235.37050226 -98.61390573 235.37050226 -116.625 230.7578125 C-117.346875 230.57589355 -118.06875 230.39397461 -118.8125 230.20654297 C-151.02838415 221.67207934 -178.97368854 197.99393066 -196.03515625 169.86328125 C-213.3460282 139.89172712 -218.36089495 103.63353356 -209.95703125 70.09179688 C-203.57392323 47.07545766 -191.93186228 28.06726668 -175.625 10.7578125 C-175.02558594 10.09394531 -174.42617187 9.43007812 -173.80859375 8.74609375 C-154.94446234 -11.34033559 -128.31534906 -22.62210369 -101.625 -27.2421875 C-100.28695312 -27.520625 -100.28695312 -27.520625 -98.921875 -27.8046875 C-63.35538636 -32.52441111 -28.17526172 -21.53782026 0 0 Z " fill="#010101" transform="translate(214.625,104.2421875)"/>
<path d="M0 0 C0.72759521 -0.00570007 1.45519043 -0.01140015 2.20483398 -0.01727295 C3.73761576 -0.02665515 5.27041708 -0.03322967 6.80322266 -0.03710938 C9.09185264 -0.04673558 11.3795516 -0.0777902 13.66796875 -0.109375 C49.06374904 -0.36404838 79.65158152 15.51367557 105.125 39.203125 C105.79273438 39.80511719 106.46046875 40.40710938 107.1484375 41.02734375 C129.66259565 62.20903132 143.80040076 95.22738362 145.25097656 125.86376953 C146.32822661 164.96521891 134.6148137 199.91749691 107.77734375 228.84375 C84.24518071 253.59950983 51.12553247 269.68965418 16.79174805 271.31347656 C-20.50086257 272.2246533 -55.98269232 260.6282454 -83.46484375 234.86328125 C-91.70648206 226.97071523 -98.71269641 218.79769756 -104.875 209.203125 C-105.27444824 208.5946875 -105.67389648 207.98625 -106.08544922 207.359375 C-111.74984651 198.67622706 -115.82902108 190.16888879 -118.875 180.203125 C-119.32143272 178.8033274 -119.7680547 177.40359015 -120.21484375 176.00390625 C-120.66636397 174.550192 -121.11562043 173.09577251 -121.5625 171.640625 C-121.76520508 170.99303223 -121.96791016 170.34543945 -122.17675781 169.67822266 C-125.45852648 158.57554452 -126.21242938 147.41443146 -126.125 135.890625 C-126.11968262 134.62331543 -126.11436523 133.35600586 -126.10888672 132.05029297 C-125.99084603 120.38518312 -125.22403226 109.4314696 -121.875 98.203125 C-121.66359375 97.39488281 -121.4521875 96.58664063 -121.234375 95.75390625 C-119.62093038 89.82760006 -117.22867971 84.59255175 -114.375 79.16015625 C-112.80603508 76.15955474 -112.80603508 76.15955474 -111.4453125 72.76171875 C-109.8319385 69.10554035 -107.92724235 65.7896967 -105.75 62.453125 C-105.35458008 61.84605713 -104.95916016 61.23898926 -104.55175781 60.61352539 C-83.87080875 29.38299625 -52.30940869 8.98700569 -15.875 1.203125 C-10.56372165 0.43953152 -5.36891304 0.03384847 0 0 Z " fill="#010101" transform="translate(598.875,76.796875)"/>
<path d="M0 0 C2.24452156 0.01602363 4.48722346 0.00009228 6.73168945 -0.01904297 C20.42769701 -0.0406013 33.38864014 2.07040447 46.38208008 6.51611328 C47.26114014 6.81469238 48.1402002 7.11327148 49.04589844 7.42089844 C81.26058593 18.79626447 107.81458652 43.96682034 122.69458008 74.51611328 C125.82264116 81.20402093 128.30551809 87.99563492 130.38208008 95.07861328 C130.61701172 95.87219238 130.85194336 96.66577148 131.09399414 97.48339844 C135.48090493 113.5849858 135.22423974 129.98122428 135.17163086 146.52392578 C135.17106574 149.02871699 135.17138526 151.53350854 135.17251587 154.03829956 C135.17296875 159.39974474 135.16736047 164.76112926 135.15604019 170.12255859 C135.13968441 177.87397415 135.13456696 185.62536626 135.13206421 193.3767972 C135.12770279 205.95742902 135.11443615 218.53803469 135.09545898 231.11865234 C135.07705976 243.32893749 135.06292312 255.53921549 135.05444336 267.74951172 C135.05391791 268.50400502 135.05339247 269.25849832 135.0528511 270.03585505 C135.05024074 273.82147896 135.04771339 277.60710291 135.04522729 281.3927269 C135.02454321 312.72554555 134.98769982 344.05831548 134.94458008 375.39111328 C111.84458008 375.39111328 88.74458008 375.39111328 64.94458008 375.39111328 C64.94047119 367.61331299 64.9363623 359.8355127 64.93212891 351.82202148 C64.915453 326.90454635 64.87425597 301.98716926 64.81772446 277.06975456 C64.80895824 273.19599889 64.80040834 269.32224277 64.79199219 265.44848633 C64.79031312 264.67732714 64.78863406 263.90616795 64.78690412 263.1116403 C64.76027163 250.64325303 64.75114173 238.17491175 64.74853865 225.70649896 C64.74547364 212.9022016 64.7234638 200.09803666 64.68405551 187.2937991 C64.66035144 179.39989076 64.65122977 171.50624714 64.66106697 163.61230817 C64.66703692 157.54788944 64.64658314 151.48384589 64.61651993 145.419487 C64.6083039 142.94001028 64.60851621 140.46048842 64.61798286 137.98101616 C64.84283192 120.06451989 64.84283192 120.06451989 58.94458008 103.39111328 C58.59725736 102.72441274 58.24993464 102.05771219 57.89208698 101.3708086 C49.42729168 86.37002876 35.26069115 77.26219036 19.19458008 72.01611328 C4.14134873 68.07478318 -10.93110477 70.01353649 -24.80541992 77.07861328 C-39.29933074 85.7233494 -49.45019444 96.98022688 -54.05541992 113.39111328 C-54.38993164 114.40625 -54.38993164 114.40625 -54.73120117 115.44189453 C-59.22894778 131.19930613 -55.74955114 147.53786988 -48.30932617 161.71923828 C-46.67212723 164.38834658 -44.94091443 166.89305029 -43.05541992 169.39111328 C-42.6197168 170.01888672 -42.18401367 170.64666016 -41.73510742 171.29345703 C-33.51759678 182.14352348 -19.168839 189.10279456 -6.05541992 191.39111328 C-4.4301919 191.49890324 -2.80184857 191.56570897 -1.17333984 191.59643555 C-0.21971558 191.61661743 0.73390869 191.63679932 1.71643066 191.65759277 C2.70566528 191.6740686 3.6948999 191.69054443 4.71411133 191.70751953 C6.09246155 191.73549622 6.09246155 191.73549622 7.49865723 191.76403809 C10.91803745 191.83212964 14.33756963 191.89240964 17.75708008 191.95361328 C29.23489258 192.17017578 29.23489258 192.17017578 40.94458008 192.39111328 C40.94458008 215.16111328 40.94458008 237.93111328 40.94458008 261.39111328 C32.30270508 261.49423828 23.66083008 261.59736328 14.75708008 261.70361328 C12.07687744 261.7491333 9.3966748 261.79465332 6.63525391 261.84155273 C-7.9622171 261.98412001 -21.08923857 260.69811051 -35.05541992 256.39111328 C-35.7352594 256.18592072 -36.41509888 255.98072815 -37.11553955 255.76931763 C-56.89271078 249.7389148 -73.11863846 238.43692883 -88.05541992 224.39111328 C-88.94100586 223.60220703 -88.94100586 223.60220703 -89.84448242 222.79736328 C-108.26222653 205.68893747 -120.31119484 179.74702937 -125.05541992 155.39111328 C-125.2590918 154.37919922 -125.46276367 153.36728516 -125.67260742 152.32470703 C-128.5350156 135.71881846 -127.89901159 118.7609133 -124.05541992 102.39111328 C-123.90556641 101.74062012 -123.75571289 101.09012695 -123.60131836 100.41992188 C-117.70880426 75.37986459 -105.6059969 55.85307037 -88.05541992 37.39111328 C-87.4340918 36.69373047 -86.81276367 35.99634766 -86.17260742 35.27783203 C-71.29822118 19.16947204 -49.21856146 8.19882696 -28.05541992 3.39111328 C-26.72474487 3.02034668 -26.72474487 3.02034668 -25.3671875 2.64208984 C-16.8103015 0.39045304 -8.78345491 -0.07425051 0 0 Z " fill="#010101" transform="translate(885.055419921875,76.60888671875)"/>
<path d="M0 0 C0.79969208 0.00087616 1.59938416 0.00175232 2.42330933 0.00265503 C14.18701147 0.04521471 25.15581271 0.54941439 36.375 4.375 C37.52210449 4.7450415 37.52210449 4.7450415 38.69238281 5.12255859 C52.18122812 9.51898296 64.63493019 15.3647557 76.375 23.375 C72.74194668 30.9229005 68.6900238 38.16081538 64.4375 45.375 C63.84259766 46.39078125 63.24769531 47.4065625 62.63476562 48.453125 C59.82759975 53.23911272 56.99779425 58.01011745 54.1328125 62.76171875 C52.06722101 66.19556299 50.07889939 69.65370899 48.1875 73.1875 C46.33553583 76.64143868 44.41270706 80.02690906 42.375 83.375 C36.88590403 82.67426434 32.4996765 80.00681881 27.69726562 77.43359375 C18.89236498 72.85674684 10.67532045 70.82588997 0.75 70.9375 C-0.20495361 70.94507324 -1.15990723 70.95264648 -2.14379883 70.96044922 C-18.66382127 71.33958366 -32.24713048 76.31392511 -44.625 87.375 C-45.285 87.375 -45.945 87.375 -46.625 87.375 C-46.89570313 87.94992188 -47.16640625 88.52484375 -47.4453125 89.1171875 C-48.63965189 91.40304236 -50.00489305 93.40065294 -51.5 95.5 C-56.68172312 103.16489606 -59.72832633 111.22143808 -59.78321838 120.47467041 C-59.7930072 121.72546387 -59.80279602 122.97625732 -59.81288147 124.26495361 C-59.81878525 125.64831505 -59.82459572 127.03167688 -59.83032227 128.41503906 C-59.83990387 129.87374141 -59.84991412 131.332441 -59.86032104 132.7911377 C-59.88734556 136.74943461 -59.9083684 140.70774341 -59.92832303 144.66608143 C-59.95019771 148.80343096 -59.97757915 152.94074393 -60.00437927 157.07806396 C-60.05428611 164.91192271 -60.09923239 172.74580177 -60.14240164 180.57970023 C-60.2010254 191.16617933 -60.26730149 201.75261033 -60.33315182 212.33904648 C-60.43669508 229.01766524 -60.53000512 245.69632529 -60.625 262.375 C-84.055 262.375 -107.485 262.375 -131.625 262.375 C-131.7459091 225.77536681 -131.7459091 225.77536681 -131.77148438 210.33789062 C-131.78922632 199.71455498 -131.809986 189.09129115 -131.85131836 178.46801758 C-131.88141731 170.72820835 -131.90062112 162.98845786 -131.90726548 155.24859172 C-131.9111434 151.15834158 -131.92012053 147.06825937 -131.94219017 142.97806358 C-132.15655888 101.58080157 -125.21438709 67.17495081 -95.3125 36.625 C-88.92384166 30.28523855 -82.31860982 25.08954016 -74.625 20.375 C-72.94470703 19.33085938 -72.94470703 19.33085938 -71.23046875 18.265625 C-58.22507407 10.39418 -44.50992342 5.39266481 -29.625 2.375 C-28.78710938 2.19694824 -27.94921875 2.01889648 -27.0859375 1.83544922 C-18.0625331 0.10410671 -9.15399591 -0.02447687 0 0 Z " fill="#010101" transform="translate(419.625,76.625)"/>
<path d="M0 0 C12.79299394 9.37848702 22.36731542 22.81469214 25.68969727 38.5559082 C27.35402475 59.18188947 24.9618637 74.65605133 12.68969727 91.5559082 C11.94719727 92.6077832 11.20469727 93.6596582 10.43969727 94.7434082 C6.30855012 98.96844505 1.55316659 102.22365599 -3.31030273 105.5559082 C-4.28612305 106.23911133 -5.26194336 106.92231445 -6.26733398 107.6262207 C-16.21594821 113.93509802 -26.05888206 115.02000554 -37.62280273 115.0559082 C-39.26780762 115.06509277 -39.26780762 115.06509277 -40.94604492 115.07446289 C-56.43955846 114.83537993 -69.85886234 108.6670014 -81.03686523 97.9230957 C-94.50520075 83.89936491 -100.77887724 69.71808203 -100.42749023 50.29418945 C-100.36948242 48.44374023 -100.36948242 48.44374023 -100.31030273 46.5559082 C-100.29225586 45.49758789 -100.27420898 44.43926758 -100.25561523 43.34887695 C-99.571285 27.99170143 -91.03748457 14.30487058 -80.09545898 3.9074707 C-57.0409939 -15.55787009 -24.68849247 -17.49259984 0 0 Z " fill="#FDFDFD" transform="translate(645.310302734375,160.444091796875)"/>
</svg>
