<?xml version="1.0" encoding="UTF-8"?>
<svg version="1.1" xmlns="http://www.w3.org/2000/svg" width="474" height="474">
<path d="M0 0 C156.42 0 312.84 0 474 0 C474 156.42 474 312.84 474 474 C317.58 474 161.16 474 0 474 C0 317.58 0 161.16 0 0 Z " fill="#FCFCFC" transform="translate(0,0)"/>
<path d="M0 0 C1.2115263 0.73249184 2.40167028 1.50205898 3.5625 2.3125 C4.573125 3.01375 5.58375 3.715 6.625 4.4375 C20.52277117 16.90406439 25.55109511 37.47015549 27.5625 55.3125 C27.59185407 56.97890815 27.60246391 58.64631254 27.5625 60.3125 C28.55507812 59.78140625 29.54765625 59.2503125 30.5703125 58.703125 C48.90523852 49.07137141 67.60915768 44.74751773 88.3125 49.5 C90.0799514 50.05102896 91.8316064 50.6555946 93.5625 51.3125 C94.5834375 51.69921875 95.604375 52.0859375 96.65625 52.484375 C102.44156435 54.80422877 108.0326205 57.44121642 113.5625 60.3125 C113.52125 59.36375 113.48 58.415 113.4375 57.4375 C113.44723577 52.5793519 114.48964588 48.03170009 115.5625 43.3125 C115.83707031 41.95318359 115.83707031 41.95318359 116.1171875 40.56640625 C119.25829414 26.27631 125.22068798 11.27801019 137.3125 2.3125 C144.48000894 -2.09827473 150.09579899 -2.6954406 158.5625 -1.6875 C168.86478766 1.88733752 175.08479885 10.93983248 179.8125 20.3125 C186.19368382 34.97009663 187.74038655 50.86957785 187.69067383 66.67822266 C187.68745661 68.84167738 187.70106399 71.00457605 187.71679688 73.16796875 C187.76421467 85.08900396 187.76421467 85.08900396 186.7734375 90.40625 C186.02704266 94.50732054 185.60894371 97.24491449 186.5625 101.3125 C189.86740379 106.00187487 194.20488783 109.71299303 198.4609375 113.515625 C210.75085567 124.53722805 218.73451819 144.10799891 219.76367188 160.52075195 C219.86620792 164.05799404 219.88455874 167.58635476 219.875 171.125 C219.89111328 172.30642578 219.90722656 173.48785156 219.92382812 174.70507812 C219.92988403 185.75711077 218.29069426 195.99817042 213.0625 205.8125 C212.4746875 206.9365625 211.886875 208.060625 211.28125 209.21875 C209.5625 212.3125 209.5625 212.3125 207.71875 214.90625 C206.27208726 217.25061674 206.27208726 217.25061674 207.1875 219.68359375 C207.64125 220.55113281 208.095 221.41867187 208.5625 222.3125 C212.08569237 230.5173257 215.11556807 238.07404237 216.23828125 247.01953125 C216.44206869 249.33629179 216.44206869 249.33629179 217.5625 251.3125 C218.9658629 273.88631816 218.51414867 295.99627645 207.26953125 316.125 C205.32601616 319.5667106 205.32601616 319.5667106 204.5625 323.3125 C205.40179626 325.86221406 205.40179626 325.86221406 206.75 328.5625 C208.94662622 333.5431511 210.52786147 338.41725061 211.8125 343.6875 C211.97516357 344.35297852 212.13782715 345.01845703 212.30541992 345.70410156 C214.52178168 355.068083 216.6552007 365.72473326 214.5625 375.3125 C211.91491412 378.98937207 208.5756903 380.36565458 204.5625 382.3125 C202.02460418 383.92274644 199.55011808 385.62587563 197.0625 387.3125 C194.92364711 388.75184142 192.81827066 390.05120888 190.5625 391.3125 C189.9025 390.9825 189.2425 390.6525 188.5625 390.3125 C188.871875 389.6525 189.18125 388.9925 189.5 388.3125 C195.0286459 372.70220568 192.21512545 351.80092038 185.52441406 337.01904297 C184.10642772 334.19616514 182.61742705 331.41693498 181.11035156 328.64086914 C178.7920843 324.22715725 177.62594773 320.99204228 178.80078125 316.0859375 C179.98033597 313.33969215 181.3906848 311.35269003 183.5625 309.3125 C184.2225 309.3125 184.8825 309.3125 185.5625 309.3125 C185.81 308.673125 186.0575 308.03375 186.3125 307.375 C186.9881667 305.71961659 187.68358034 304.06930884 188.48046875 302.46875 C197.13796353 284.68937374 197.16374353 260.73385528 191.5625 241.9609375 C189.55032471 236.3083135 187.14727518 231.50711711 183.75 226.5625 C181.08795449 222.51079638 179.40222337 219.47174931 179.8046875 214.5546875 C181.12093384 210.66022667 183.78814932 207.90376191 186.4609375 204.84375 C196.4713882 192.78655288 197.86576123 177.3461101 196.5625 162.3125 C194.33783779 145.51259255 186.13373615 131.49555158 173.5625 120.3125 C165.57074601 114.29856139 156.16745679 110.22296913 146.09765625 110.171875 C145.05029297 110.15253906 144.00292969 110.13320312 142.92382812 110.11328125 C140.72870001 110.07949005 138.53327726 110.06120265 136.33789062 110.05859375 C128.33978635 109.87179107 128.33978635 109.87179107 124.484375 107.09765625 C122.65890788 104.45221304 121.13765649 101.89689013 119.75 99 C112.87585404 86.06552384 99.66116921 77.52715724 85.96484375 72.96875 C72.72114676 69.3509596 58.80472546 69.97337504 46.5625 76.3125 C45.68335938 76.75851563 44.80421875 77.20453125 43.8984375 77.6640625 C32.5876775 83.93225457 24.46634869 92.80400409 18.05859375 103.921875 C16.64388946 106.18244687 15.65090185 107.6793372 13.5625 109.3125 C11.02563477 109.66552734 11.02563477 109.66552734 8.00390625 109.6484375 C6.89466797 109.66132813 5.78542969 109.67421875 4.64257812 109.6875 C2.33266908 109.6875 0.02274518 109.6799287 -2.28710938 109.6640625 C-17.66017721 109.87622675 -29.51575237 117.00342066 -40.125 127.8125 C-50.14461395 139.46907063 -56.04712302 154.74626148 -55.875 170.0625 C-55.86670166 171.02260986 -55.85840332 171.98271973 -55.84985352 172.97192383 C-55.5161156 187.11362283 -51.1656685 197.93885551 -42.28125 208.99609375 C-39.71580295 212.21920838 -38.86398567 214.59836417 -38.88671875 218.78125 C-39.76355076 222.81094602 -42.0554869 225.90095276 -44.29711914 229.31494141 C-55.23245152 246.1239848 -56.24619074 269.60297767 -52.52734375 288.859375 C-50.66830854 296.69057062 -48.01699179 303.38246423 -42.4375 309.3125 C-41.45504881 310.48012523 -40.4956955 311.66764537 -39.5625 312.875 C-38.94761719 313.61943359 -38.94761719 313.61943359 -38.3203125 314.37890625 C-36.91034729 317.46710439 -37.13538122 319.96075866 -37.4375 323.3125 C-38.79296875 326.4609375 -38.79296875 326.4609375 -40.625 329.6875 C-43.50662052 335.03866197 -45.6182128 340.35040732 -47.3125 346.1875 C-47.51512451 346.87634277 -47.71774902 347.56518555 -47.92651367 348.27490234 C-51.93548035 362.66011986 -51.14662408 376.98380042 -47.4375 391.3125 C-56.34673977 387.89989938 -70.10176809 382.16614127 -74.47460938 373.18164062 C-75.66714332 367.78359923 -74.58541284 362.6306785 -73.4375 357.3125 C-73.17959323 355.78452403 -72.92565778 354.25587221 -72.67578125 352.7265625 C-71.15179584 344.29312013 -68.61086246 336.32794448 -65.28076172 328.43701172 C-63.82686897 324.94660883 -63.82686897 324.94660883 -63.58984375 321.2265625 C-64.7439818 318.62044431 -65.99585797 316.09097673 -67.3125 313.5625 C-74.25181124 299.81637034 -76.96743621 286.31045628 -76.82861328 270.98120117 C-76.81253353 268.87938329 -76.82856491 266.7794946 -76.84765625 264.67773438 C-76.86821054 252.37244384 -75.27380059 240.58880061 -70.375 229.1875 C-69.86839844 227.98867188 -69.36179687 226.78984375 -68.83984375 225.5546875 C-67.4375 222.3125 -67.4375 222.3125 -66.0625 219.71484375 C-65.14862384 217.23710533 -65.14862384 217.23710533 -66.59765625 214.76171875 C-67.22542969 213.85035156 -67.85320312 212.93898438 -68.5 212 C-71.57976799 207.09788409 -73.6375409 202.47568155 -75.3125 196.9375 C-75.51496338 196.27194092 -75.71742676 195.60638184 -75.92602539 194.9206543 C-82.37326327 172.78207938 -79.353491 149.02332016 -68.51953125 128.94921875 C-65.82528181 124.14989232 -62.82974116 119.64747801 -59.4375 115.3125 C-58.94636719 114.68085938 -58.45523438 114.04921875 -57.94921875 113.3984375 C-55.86131525 110.84342891 -54.03648356 108.70183932 -51.25 106.890625 C-48.70451799 105.17596003 -47.17397208 103.85993454 -45.4375 101.3125 C-45.21138466 97.93063296 -45.21138466 97.93063296 -45.69140625 94.16015625 C-45.81860098 92.71732407 -45.94242624 91.27419167 -46.06323242 89.83081055 C-46.16189102 88.71239273 -46.16189102 88.71239273 -46.26254272 87.57138062 C-48.40562103 59.90200799 -48.16533462 29.34220501 -30 6.625 C-21.9043278 -1.57982733 -10.98959816 -5.13690029 0 0 Z " fill="#070707" transform="translate(166.4375,50.6875)"/>
<path d="M0 0 C1.64621338 0.01740234 1.64621338 0.01740234 3.32568359 0.03515625 C21.12547909 0.39469467 36.16508478 6.0044402 49.1171875 18.53125 C59.16641553 30.21789219 62.63327645 42.07325917 61.5625 57.375 C60.0298696 67.26743256 54.09592746 75.91777646 46.5625 82.375 C45.9025 82.375 45.2425 82.375 44.5625 82.375 C44.5625 83.035 44.5625 83.695 44.5625 84.375 C42.42049177 85.48713798 40.27431908 86.58964637 38.125 87.6875 C37.53267578 87.99623047 36.94035156 88.30496094 36.33007812 88.62304688 C28.231466 92.73731507 20.95958531 94.83924257 11.84765625 94.7734375 C10.50398232 94.77774277 10.50398232 94.77774277 9.13316345 94.78213501 C7.25161095 94.784163 5.37003674 94.77872243 3.48852539 94.76611328 C0.63574238 94.75006045 -2.21562006 94.76599551 -5.06835938 94.78515625 C-6.90885724 94.78317322 -8.74935424 94.77932832 -10.58984375 94.7734375 C-11.42869614 94.77951019 -12.26754852 94.78558289 -13.13182068 94.7918396 C-26.64945924 94.63423326 -38.43089486 88.94803439 -48.171875 79.7890625 C-51.46170703 76.28368975 -53.98897934 72.49447057 -56.4375 68.375 C-57.0975 67.385 -57.7575 66.395 -58.4375 65.375 C-61.85008658 55.70600469 -62.0472886 44.27477065 -58.1875 34.75 C-52.78035708 23.55917217 -45.26287702 14.5738386 -34.4375 8.375 C-33.65503906 7.92253906 -32.87257812 7.47007812 -32.06640625 7.00390625 C-21.86482001 1.50321095 -11.48777265 -0.15651401 0 0 Z " fill="#F9F9F9" transform="translate(236.4375,214.625)"/>
<path d="M0 0 C1.64621338 0.01740234 1.64621338 0.01740234 3.32568359 0.03515625 C21.12547909 0.39469467 36.16508478 6.0044402 49.1171875 18.53125 C59.16641553 30.21789219 62.63327645 42.07325917 61.5625 57.375 C60.0298696 67.26743256 54.09592746 75.91777646 46.5625 82.375 C45.9025 82.375 45.2425 82.375 44.5625 82.375 C44.5625 83.035 44.5625 83.695 44.5625 84.375 C42.42049177 85.48713798 40.27431908 86.58964637 38.125 87.6875 C37.53267578 87.99623047 36.94035156 88.30496094 36.33007812 88.62304688 C28.231466 92.73731507 20.95958531 94.83924257 11.84765625 94.7734375 C10.50398232 94.77774277 10.50398232 94.77774277 9.13316345 94.78213501 C7.25161095 94.784163 5.37003674 94.77872243 3.48852539 94.76611328 C0.63574238 94.75006045 -2.21562006 94.76599551 -5.06835938 94.78515625 C-6.90885724 94.78317322 -8.74935424 94.77932832 -10.58984375 94.7734375 C-11.42869614 94.77951019 -12.26754852 94.78558289 -13.13182068 94.7918396 C-26.64945924 94.63423326 -38.43089486 88.94803439 -48.171875 79.7890625 C-51.46170703 76.28368975 -53.98897934 72.49447057 -56.4375 68.375 C-57.0975 67.385 -57.7575 66.395 -58.4375 65.375 C-61.85008658 55.70600469 -62.0472886 44.27477065 -58.1875 34.75 C-52.78035708 23.55917217 -45.26287702 14.5738386 -34.4375 8.375 C-33.65503906 7.92253906 -32.87257812 7.47007812 -32.06640625 7.00390625 C-21.86482001 1.50321095 -11.48777265 -0.15651401 0 0 Z M-40.4375 33.375 C-43.07346585 37.11662933 -45.0093245 40.77211339 -45.4375 45.375 C-45.51226562 46.09429687 -45.58703125 46.81359375 -45.6640625 47.5546875 C-46.1682062 56.07206264 -42.86181986 61.66721668 -38.3125 68.625 C-30.40823892 76.18559755 -20.65236328 79.67978532 -9.890625 79.7109375 C-9.07938171 79.7175943 -8.26813843 79.7242511 -7.43231201 79.73110962 C-5.72117363 79.74119738 -4.00999621 79.74592784 -2.29882812 79.74560547 C0.29104104 79.74996389 2.87918339 79.7862818 5.46875 79.82421875 C14.20719103 79.88398986 21.75704297 79.8087087 29.5625 75.375 C30.37493164 74.92930664 31.18736328 74.48361328 32.02441406 74.02441406 C38.43527479 70.35342975 43.81502625 64.51462869 46.2265625 57.421875 C47.71760228 48.33693492 46.82909261 41.00961829 41.5625 33.375 C35.12114775 24.96243875 23.87771028 17.83385826 13.5625 15.375 C9.35159472 15.01568963 5.16208828 14.95907849 0.9375 14.9375 C-0.73119141 14.88819336 -0.73119141 14.88819336 -2.43359375 14.83789062 C-17.31029417 14.74263818 -30.91176925 22.01834957 -40.4375 33.375 Z " fill="#090909" transform="translate(236.4375,214.625)"/>
<path d="M0 0 C5.97793182 2.49939391 8.68037169 7.95029042 11.16796875 13.69921875 C15.48314582 25.81808769 17.2606641 37.82996537 17.375 50.625 C17.38885742 51.56134277 17.40271484 52.49768555 17.41699219 53.46240234 C17.3807256 58.74300866 16.88837897 62.39998905 14 67 C12.87722656 67.06058594 11.75445312 67.12117188 10.59765625 67.18359375 C3.03659035 67.60294982 -4.4838441 68.04339834 -12 69 C-17.4783551 52.5649347 -13.75949535 25.75677585 -7 10 C-5.02382241 6.27908904 -2.98364163 2.98364163 0 0 Z " fill="#F8F8F8" transform="translate(155,71)"/>
<path d="M0 0 C4.14987857 1.48209949 6.04120634 4.22722622 8 8 C16.60282732 26.92622011 16.62166778 48.72435964 14 69 C12.20793453 68.85915204 10.41635083 68.71216299 8.625 68.5625 C7.12839844 68.44068359 7.12839844 68.44068359 5.6015625 68.31640625 C3 68 3 68 1 67 C-2.31107687 66.84127994 -5.61955694 66.74593169 -8.93359375 66.671875 C-12 66 -12 66 -13.88671875 64.09765625 C-15.50186801 59.60357428 -15.44454875 55.42894587 -15.375 50.6875 C-15.36629883 49.7092627 -15.35759766 48.73102539 -15.34863281 47.72314453 C-15.01858691 31.18568034 -12.17479963 12.17479963 0 0 Z " fill="#F9F9F9" transform="translate(317,71)"/>
<path d="M0 0 C3.94230277 2.08272599 6.6765566 4.20103652 9 8 C9.83875668 13.35746387 9.91650817 19.09776039 7.375 24 C4.23822345 27.96224407 1.74536637 30.61221149 -3.43359375 31.34375 C-9.58001537 31.56293888 -13.054432 30.52477258 -17.75 26.5 C-20.78935668 22.85277199 -20.32868638 18.22115957 -20.28125 13.7265625 C-19.7546282 8.62125675 -17.10837353 6.00023953 -13.4375 2.6875 C-9.23083768 -0.22480468 -5.00016867 -0.6913112 0 0 Z " fill="#0A0A0A" transform="translate(166,217)"/>
<path d="M0 0 C5.42956938 2.30584253 9.57340127 5.54015285 12 11 C12.76397394 16.33190148 12.65740886 20.58404245 10.375 25.5 C6.31279727 29.77600287 2.75309272 31.17163072 -3.0625 31.5 C-6.87490591 31.38551334 -7.78569775 31.1641464 -10.9375 28.75 C-11.618125 27.8425 -12.29875 26.935 -13 26 C-13.5775 25.29875 -14.155 24.5975 -14.75 23.875 C-17.759882 19.360177 -17.58575112 14.22294751 -17 9 C-13.4534378 1.77552145 -8.10918951 -1.58300937 0 0 Z " fill="#080808" transform="translate(316,217)"/>
<path d="M0 0 C3.375 1 3.375 1 6 2 C6.66 1.34 7.32 0.68 8 0 C11.50337981 -0.38080215 13.36278626 -0.40245078 16.375 1.5 C16.91125 1.995 17.4475 2.49 18 3 C17.51098901 9.35714286 17.51098901 9.35714286 15.0625 12.4375 C13 14 13 14 11 14 C11.02320313 14.84304688 11.04640625 15.68609375 11.0703125 16.5546875 C11.09738281 18.19824219 11.09738281 18.19824219 11.125 19.875 C11.14820313 20.96554687 11.17140625 22.05609375 11.1953125 23.1796875 C11 26 11 26 9 28 C6.90625 28.265625 6.90625 28.265625 4.5 28.25 C3.7059375 28.25515625 2.911875 28.2603125 2.09375 28.265625 C0 28 0 28 -2 26 C-1.9765625 23.1796875 -1.9765625 23.1796875 -1.625 19.875 C-1.51414063 18.77929688 -1.40328125 17.68359375 -1.2890625 16.5546875 C-1.19367188 15.71164062 -1.09828125 14.86859375 -1 14 C-1.78761719 13.70738281 -2.57523438 13.41476562 -3.38671875 13.11328125 C-6.40842011 11.82600937 -7.44252458 10.86903368 -9 8 C-9.42136557 5.12066864 -9.41660317 3.671194 -7.875 1.1875 C-5.12243603 -0.55579051 -3.21225089 -0.31492656 0 0 Z " fill="#0B0B0B" transform="translate(232,250)"/>
<path d="M0 0 C0.66 0.33 1.32 0.66 2 1 C1.01 2.485 1.01 2.485 0 4 C-0.66 4 -1.32 4 -2 4 C-2.3403125 4.86625 -2.3403125 4.86625 -2.6875 5.75 C-4.88832892 9.52284957 -7.59655872 11.62574899 -11.8125 12.75 C-12.534375 12.8325 -13.25625 12.915 -14 13 C-9.89962427 7.75027653 -5.47035213 3.79037089 0 0 Z " fill="#E5E5E5" transform="translate(210,236)"/>
<path d="M0 0 C0.33 1.32 0.66 2.64 1 4 C0.46890625 4.45890625 -0.0621875 4.9178125 -0.609375 5.390625 C-4.18324699 8.49493717 -7.71854059 11.58181312 -11 15 C-11 14.34 -11 13.68 -11 13 C-11.66 12.67 -12.32 12.34 -13 12 C-11.68 11.67 -10.36 11.34 -9 11 C-9 10.34 -9 9.68 -9 9 C-7.28515625 7.34375 -7.28515625 7.34375 -5.0625 5.5 C-2.07954821 3.11073001 -2.07954821 3.11073001 0 0 Z " fill="#DBDBDB" transform="translate(290,288)"/>
<path d="M0 0 C0 4.54647804 -1.40949025 6.36520202 -4.5 9.6875 C-7 12 -7 12 -9 13 C-7.47987323 7.59510481 -3.72614782 4.01507372 0 0 Z " fill="#202020" transform="translate(140,54)"/>
<path d="M0 0 C1.0625 1.875 1.0625 1.875 2 4 C1.67 4.66 1.34 5.32 1 6 C0.34 6 -0.32 6 -1 6 C-1.33 6.99 -1.66 7.98 -2 9 C-4.0625 10.1875 -4.0625 10.1875 -6 11 C-4.54955729 6.89041233 -2.48889248 3.56741255 0 0 Z " fill="#1B1B1B" transform="translate(106,167)"/>
<path d="M0 0 C0.99 0.33 1.98 0.66 3 1 C3 1.66 3 2.32 3 3 C3.99 3.33 4.98 3.66 6 4 C-1.26 3.67 -8.52 3.34 -16 3 C-16 2.67 -16 2.34 -16 2 C-15.01257813 1.93941406 -14.02515625 1.87882812 -13.0078125 1.81640625 C-11.72648438 1.73261719 -10.44515625 1.64882812 -9.125 1.5625 C-7.84882813 1.48128906 -6.57265625 1.40007812 -5.2578125 1.31640625 C-2.11699848 1.20793973 -2.11699848 1.20793973 0 0 Z " fill="#C8C7C8" transform="translate(246,96)"/>
<path d="M0 0 C0.33 0 0.66 0 1 0 C1.99 4.62 2.98 9.24 4 14 C-1 12 -1 12 -3 10 C-2.01 10 -1.02 10 0 10 C0 6.7 0 3.4 0 0 Z " fill="#2F2F2F" transform="translate(115,428)"/>
<path d="M0 0 C3.875 1.75 3.875 1.75 5 4 C4.34 4.66 3.68 5.32 3 6 C2.01 5.67 1.02 5.34 0 5 C-1.33106622 4.65772583 -2.66400079 4.32248257 -4 4 C-2.68 2.68 -1.36 1.36 0 0 Z " fill="#EDEDED" transform="translate(317,71)"/>
<path d="M0 0 C2.96404505 2.80804268 5.44499019 5.18315774 7 9 C6.01 9.33 5.02 9.66 4 10 C3.71125 9.38125 3.4225 8.7625 3.125 8.125 C2.06279958 5.86674235 2.06279958 5.86674235 0 4 C0 2.68 0 1.36 0 0 Z " fill="#222222" transform="translate(121,358)"/>
<path d="M0 0 C1.66666667 0 3.33333333 0 5 0 C4.5359375 0.99 4.5359375 0.99 4.0625 2 C2.75039745 5.70476015 2.39735865 9.09263991 2 13 C1.67 13 1.34 13 1 13 C1 10.03 1 7.06 1 4 C0.34 4 -0.32 4 -1 4 C-0.67 2.68 -0.34 1.36 0 0 Z " fill="#CFCFCF" transform="translate(297,221)"/>
<path d="M0 0 C0.33 0 0.66 0 1 0 C1.33 2.64 1.66 5.28 2 8 C1.01 8.495 1.01 8.495 0 9 C0 6.03 0 3.06 0 0 Z M-2 9 C-1.34 9.33 -0.68 9.66 0 10 C-0.66 11.32 -1.32 12.64 -2 14 C-3.65 14 -5.3 14 -7 14 C-5.35 12.35 -3.7 10.7 -2 9 Z " fill="#E5E5E5" transform="translate(381,417)"/>
<path d="M0 0 C0.66 0 1.32 0 2 0 C2.33 0.66 2.66 1.32 3 2 C3.66 1.34 4.32 0.68 5 0 C5.625 1.8125 5.625 1.8125 6 4 C5.01 5.485 5.01 5.485 4 7 C2.35 5.02 0.7 3.04 -1 1 C-0.67 0.67 -0.34 0.34 0 0 Z " fill="#161616" transform="translate(273,241)"/>
<path d="M0 0 C1.53508028 2.43338652 2.03088304 3.67124507 1.7578125 6.578125 C1.44457031 7.90070313 1.44457031 7.90070313 1.125 9.25 C0.92132813 10.14203125 0.71765625 11.0340625 0.5078125 11.953125 C0.34023437 12.62859375 0.17265625 13.3040625 0 14 C-0.33 14 -0.66 14 -1 14 C-1.08333357 9.1666528 -0.95261487 4.76307437 0 0 Z " fill="#4C4C4C" transform="translate(121,94)"/>
<path d="M0 0 C2.475 0.99 2.475 0.99 5 2 C3.35 3.32 1.7 4.64 0 6 C-0.66 5.67 -1.32 5.34 -2 5 C-1.34 3.35 -0.68 1.7 0 0 Z " fill="#1F1F1F" transform="translate(357,436)"/>
<path d="M0 0 C2 3 2 3 1.625 5.1875 C1.41875 5.785625 1.2125 6.38375 1 7 C-0.32 7.33 -1.64 7.66 -3 8 C-1.125 2.25 -1.125 2.25 0 0 Z " fill="#1A1A1A" transform="translate(181,244)"/>
<path d="M0 0 C0.99 0.33 1.98 0.66 3 1 C2.67 1.99 2.34 2.98 2 4 C1.01 4.33 0.02 4.66 -1 5 C-1 5.66 -1 6.32 -1 7 C-1.99 6.67 -2.98 6.34 -4 6 C-2.68 4.02 -1.36 2.04 0 0 Z " fill="#1B1B1B" transform="translate(113,159)"/>
<path d="M0 0 C0 3.29223784 -0.50518132 5.08510357 -2 8 C-4.125 9.3125 -4.125 9.3125 -6 10 C-4.6302836 6.00499382 -2.74277578 3.19990508 0 0 Z " fill="#DDDDDD" transform="translate(193,141)"/>
<path d="M0 0 C0 1.66666667 0 3.33333333 0 5 C-0.928125 5.12375 -0.928125 5.12375 -1.875 5.25 C-4.18437567 5.81258459 -4.18437567 5.81258459 -5.25 8.0625 C-5.4975 8.701875 -5.745 9.34125 -6 10 C-5.58578031 5.16743695 -3.53586014 3.17320782 0 0 Z " fill="#EDEDED" transform="translate(200,134)"/>
<path d="M0 0 C1.32 0.33 2.64 0.66 4 1 C3.34 3.64 2.68 6.28 2 9 C0.14223235 5.86501708 -0.20140476 3.62528568 0 0 Z " fill="#DEDEDE" transform="translate(96,381)"/>
<path d="M0 0 C0.66 0.33 1.32 0.66 2 1 C1.01 2.485 1.01 2.485 0 4 C-0.66 4 -1.32 4 -2 4 C-2.33 4.99 -2.66 5.98 -3 7 C-3.99 6.67 -4.98 6.34 -6 6 C-5.34 6 -4.68 6 -4 6 C-3.71125 5.195625 -3.4225 4.39125 -3.125 3.5625 C-2 1 -2 1 0 0 Z " fill="#EDEDED" transform="translate(210,236)"/>
<path d="M0 0 C1.98 0.99 3.96 1.98 6 3 C5.67 3.99 5.34 4.98 5 6 C3.68 5.67 2.36 5.34 1 5 C0.67 3.35 0.34 1.7 0 0 Z " fill="#F1F1F1" transform="translate(192,298)"/>
<path d="M0 0 C0.33 0 0.66 0 1 0 C1.33 2.97 1.66 5.94 2 9 C1.01 9.66 0.02 10.32 -1 11 C-1 7.21293268 -0.5745952 3.73486879 0 0 Z " fill="#D2D2D2" transform="translate(346,265)"/>
<path d="M0 0 C0.99 0 1.98 0 3 0 C3 0.99 3 1.98 3 3 C2.34 3 1.68 3 1 3 C0.67 3.99 0.34 4.98 0 6 C-0.66 6 -1.32 6 -2 6 C-1.34 4.02 -0.68 2.04 0 0 Z " fill="#1D1D1D" transform="translate(129,69)"/>
</svg>
